#!OML:ASF E:\acrobat2\Project_11_07_03\Capture day 1\Session 1\Acrobat.ASF
:FULLY-SPECIFIED
:DEGREES
465
root 11.6016 17.906 26.1392 -174.654 -53.2681 -178.817
lowerback -5.37115 -0.149696 -2.73371
upperback -0.450631 -0.0354608 -2.53436
thorax 2.54741 -0.0639306 -1.07928
lowerneck 6.58788 9.99808 6.34265
upperneck -7.96581 13.6231 -4.78167
head -2.93394 6.76773 -3.19937
rclavicle 3.65764e-014 7.95139e-016
rhumerus -53.7215 -11.6873 -70.1532
rradius 46.268
rwrist -3.33191
rhand -3.1112 -38.0505
rfingers 7.12502
rthumb 22.6072 -66.7466
lclavicle 3.65764e-014 7.95139e-016
lhumerus 341.154 -31.7321 -271.937
lradius 26.5725
lwrist 2.63281
lhand -17.2084 -12.4676
lfingers 7.12502
lthumb 9.03427 17.3189
rfemur -2.78512 19.3458 4.01987
rtibia -3.67587
rfoot -31.7168 -36.4992
rtoes 20.2088
lfemur 8.81694 -4.13714 -9.78346
ltibia 1.9999
lfoot -28.107 3.16937
ltoes 23.9921
466
root 11.5953 17.9081 26.1353 -174.557 -53.335 -178.876
lowerback -5.4229 0.0106075 -2.55837
upperback -0.530765 0.166664 -2.6038
thorax 2.49425 0.0386388 -1.23385
lowerneck 6.69832 9.84764 6.32037
upperneck -7.91568 13.4403 -4.61512
head -2.96245 6.67155 -3.14506
rclavicle 4.16454e-014 -2.54444e-014
rhumerus -53.5506 -11.0497 -70.6876
rradius 47.1705
rwrist -3.13531
rhand -3.41871 -37.7561
rfingers 7.12502
rthumb 22.3121 -66.4878
lclavicle 4.16454e-014 -2.54444e-014
lhumerus 341.795 -27.4725 -273.856
lradius 25.027
lwrist 2.94892
lhand -18.2363 -11.8867
lfingers 7.12502
lthumb 8.04231 17.9403
rfemur -2.71129 19.6692 3.98769
rtibia -3.80209
rfoot -32.3759 -36.6578
rtoes 20.9915
lfemur 8.80559 -4.37286 -9.88443
ltibia 1.94051
lfoot -28.3798 3.33948
ltoes 24.6547
467
root 11.5887 17.9107 26.1327 -174.53 -53.431 -178.823
lowerback -5.542 0.181558 -2.29574
upperback -0.549953 0.384348 -2.66105
thorax 2.54401 0.149739 -1.42379
lowerneck 6.61867 9.66281 6.20477
upperneck -7.81849 13.1917 -4.42458
head -2.95041 6.54421 -3.0492
rclavicle 2.7482e-014 -1.35174e-014
rhumerus -53.4202 -10.6008 -71.1391
rradius 48.1555
rwrist -3.02342
rhand -3.67405 -37.5563
rfingers 7.12502
rthumb 22.0669 -66.3172
lclavicle 2.7482e-014 -1.35174e-014
lhumerus 342.518 -23.1235 -275.8
lradius 23.464
lwrist 3.03921
lhand -19.1014 -11.7545
lfingers 7.12502
lthumb 7.20724 18.1027
rfemur -2.67664 20.0054 4.01864
rtibia -3.88775
rfoot -33.1504 -36.7175
rtoes 22.0675
lfemur 8.74439 -4.62292 -9.91641
ltibia 1.93118
lfoot -28.6373 3.74274
ltoes 22.9288
468
root 11.5815 17.9098 26.1271 -174.624 -53.494 -178.621
lowerback -5.68266 0.352552 -2.02149
upperback -0.574319 0.601708 -2.65109
thorax 2.60226 0.261463 -1.55021
lowerneck 6.60604 9.47707 6.2253
upperneck -7.74308 12.9408 -4.47406
head -2.93282 6.42276 -3.05942
rclavicle 2.18663e-015 -2.94201e-014
rhumerus -53.1909 -10.1077 -71.52
rradius 48.9264
rwrist -2.88974
rhand -4.40886 -36.7488
rfingers 7.12502
rthumb 21.3613 -65.5914
lclavicle 2.18663e-015 -2.94201e-014
lhumerus 343.222 -18.407 -277.743
lradius 21.8735
lwrist 2.6962
lhand -19.315 -12.0095
lfingers 7.12502
lthumb 7.00113 17.8547
rfemur -2.69948 20.028 4.15573
rtibia -3.8824
rfoot -33.1746 -36.729
rtoes 21.8815
lfemur 8.71685 -4.7588 -9.8088
ltibia 1.87806
lfoot -28.795 4.20795
ltoes 20.5901
469
root 11.5743 17.9081 26.12 -174.723 -53.54 -178.462
lowerback -5.7882 0.475159 -1.82497
upperback -0.610596 0.75628 -2.61144
thorax 2.62794 0.341149 -1.60684
lowerneck 6.61292 9.24976 6.17025
upperneck -7.66242 12.6376 -4.40024
head -2.93339 6.27194 -3.01753
rclavicle 7.9663e-014 3.97569e-015
rhumerus -52.8367 -9.52331 -71.8233
rradius 49.597
rwrist -2.84074
rhand -4.6966 -36.513
rfingers 7.12502
rthumb 21.0849 -65.3867
lclavicle 7.9663e-014 3.97569e-015
lhumerus 343.547 -14.3248 -279.551
lradius 20.844
lwrist 3.4599
lhand -19.5804 -11.8267
lfingers 7.12502
lthumb 6.74486 18.0458
rfemur -2.71491 19.9395 4.2821
rtibia -3.81209
rfoot -33.076 -36.7634
rtoes 21.2564
lfemur 8.75535 -4.91498 -9.7245
ltibia 1.77191
lfoot -28.9333 4.20267
ltoes 21.4534
470
root 11.5667 17.9084 26.1161 -174.765 -53.6145 -178.388
lowerback -5.84515 0.538041 -1.64871
upperback -0.668881 0.829137 -2.55759
thorax 2.60255 0.379883 -1.64403
lowerneck 6.78229 9.26823 5.97144
upperneck -7.64943 12.6562 -4.36756
head -2.97425 6.28698 -2.98663
rclavicle -1.93318e-014 3.65764e-014
rhumerus -52.4476 -8.792 -72.0698
rradius 50.2645
rwrist -2.86581
rhand -4.41844 -37.1295
rfingers 7.12502
rthumb 21.3521 -65.9731
lclavicle -1.93318e-014 3.65764e-014
lhumerus 343.621 -10.7894 -281.261
lradius 20.0318
lwrist 4.75248
lhand -19.968 -11.4429
lfingers 7.12502
lthumb 6.37066 18.4412
rfemur -2.67393 20.057 4.35665
rtibia -3.79325
rfoot -33.2898 -36.7922
rtoes 21.3075
lfemur 8.79795 -5.03411 -9.70173
ltibia 1.65539
lfoot -28.9432 3.97748
ltoes 23.0008
471
root 11.56 17.9088 26.1141 -174.598 -53.6962 -178.53
lowerback -5.88919 0.587743 -1.65028
upperback -0.758068 0.892396 -2.50013
thorax 2.53532 0.411264 -1.5786
lowerneck 6.87763 9.25137 5.67382
upperneck -7.58005 12.6205 -4.23348
head -2.99788 6.27385 -2.8973
rclavicle -3.77194e-014 2.38542e-014
rhumerus -52.2281 -8.00821 -72.2297
rradius 51.0353
rwrist -2.93351
rhand -4.36381 -37.2897
rfingers 7.12502
rthumb 21.4046 -66.1274
lclavicle -3.77194e-014 2.38542e-014
lhumerus 343.601 -7.12758 -282.997
lradius 19.2196
lwrist 5.25368
lhand -19.9941 -11.303
lfingers 7.12502
lthumb 6.34554 18.5819
rfemur -2.71978 19.7805 4.20562
rtibia -3.80564
rfoot -32.9793 -36.7233
rtoes 21.3752
lfemur 8.8037 -5.27396 -9.87536
ltibia 1.52859
lfoot -29.0359 3.96643
ltoes 23.7512
472
root 11.5542 17.9095 26.1121 -174.212 -53.7781 -178.982
lowerback -5.85609 0.670569 -1.83969
upperback -0.833439 1.00871 -2.52972
thorax 2.43811 0.466509 -1.4942
lowerneck 6.7395 9.14477 5.59498
upperneck -7.27829 12.467 -4.20051
head -2.88422 6.20382 -2.84476
rclavicle 4.7112e-014 -4.05521e-014
rhumerus -52.1146 -7.46278 -72.2856
rradius 51.7975
rwrist -2.99088
rhand -4.41243 -36.9577
rfingers 7.12502
rthumb 21.3579 -65.8006
lclavicle 4.7112e-014 -4.05521e-014
lhumerus 343.369 -4.14142 -284.713
lradius 18.8662
lwrist 6.04001
lhand -19.6767 -11.0787
lfingers 7.12502
lthumb 6.65191 18.7968
rfemur -2.84943 18.8637 3.78873
rtibia -3.66514
rfoot -32.0985 -36.4234
rtoes 21.0518
lfemur 8.82265 -5.69803 -10.3133
ltibia 1.44368
lfoot -29.3867 3.95776
ltoes 24.8621
473
root 11.5472 17.9125 26.1112 -173.911 -53.9079 -179.356
lowerback -5.71795 0.745104 -1.88383
upperback -0.951839 1.09955 -2.59089
thorax 2.24037 0.510891 -1.52754
lowerneck 6.74933 9.05686 5.53121
upperneck -7.02759 12.3467 -4.18917
head -2.81188 6.15036 -2.81607
rclavicle 4.07012e-014 7.15625e-015
rhumerus -51.9826 -6.85207 -72.3635
rradius 52.3927
rwrist -3.26547
rhand -4.40565 -36.9226
rfingers 7.12502
rthumb 21.3644 -65.7648
lclavicle 4.07012e-014 7.15625e-015
lhumerus 343.01 -1.6079 -286.4
lradius 18.5557
lwrist 7.03791
lhand -19.3741 -10.8613
lfingers 7.12502
lthumb 6.94403 19.0048
rfemur -2.87922 18.3705 3.47775
rtibia -3.5909
rfoot -31.7975 -36.3045
rtoes 20.7262
lfemur 8.80585 -5.95782 -10.6531
ltibia 1.45088
lfoot -29.5452 3.76881
ltoes 26.3306
474
root 11.5398 17.9139 26.1087 -173.818 -54.0432 -179.421
lowerback -5.61598 0.843272 -1.74116
upperback -1.10642 1.21111 -2.62159
thorax 2.02935 0.567331 -1.63307
lowerneck 6.82876 8.96725 5.30294
upperneck -6.88037 12.2297 -3.91801
head -2.814 6.08976 -2.68704
rclavicle 4.94477e-014 0
rhumerus -51.8929 -6.28601 -72.44
rradius 52.9712
rwrist -3.64582
rhand -4.4372 -36.983
rfingers 7.12502
rthumb 21.3341 -65.8287
lclavicle 4.94477e-014 0
lhumerus 342.714 0.857521 -288.121
lradius 18.0445
lwrist 7.39573
lhand -19.1861 -10.6266
lfingers 7.12502
lthumb 7.12554 19.2335
rfemur -2.83906 18.5474 3.41754
rtibia -3.80266
rfoot -32.0181 -36.5628
rtoes 20.7896
lfemur 8.74402 -6.03279 -10.7289
ltibia 1.444
lfoot -29.5062 3.92808
ltoes 26.0977
475
root 11.5329 17.9123 26.102 -173.737 -54.1814 -179.429
lowerback -5.69397 0.993698 -1.61732
upperback -1.16679 1.40408 -2.68777
thorax 2.0186 0.663457 -1.75604
lowerneck 6.82185 8.84578 5.23913
upperneck -6.8847 12.0714 -3.76803
head -2.83575 6.00599 -2.62454
rclavicle 4.87519e-014 1.59028e-014
rhumerus -51.8381 -6.11486 -72.4335
rradius 53.6278
rwrist -3.80518
rhand -4.69126 -36.6083
rfingers 7.12502
rthumb 21.09 -65.4814
lclavicle 4.87519e-014 1.59028e-014
lhumerus 342.559 2.63213 -289.824
lradius 17.6675
lwrist 7.54712
lhand -18.9191 -10.2062
lfingers 7.12502
lthumb 7.38322 19.645
rfemur -2.78534 18.8334 3.41925
rtibia -3.99712
rfoot -32.422 -36.7053
rtoes 21.5672
lfemur 8.67094 -6.05846 -10.7206
ltibia 1.38869
lfoot -29.5147 4.31307
ltoes 24.5308
476
root 11.5271 17.9109 26.0915 -173.65 -54.3712 -179.488
lowerback -5.80978 1.10298 -1.61174
upperback -1.16508 1.55312 -2.72618
thorax 2.08915 0.737208 -1.78578
lowerneck 6.50258 8.56439 5.03674
upperneck -6.71423 11.6813 -3.46167
head -2.76822 5.80579 -2.45405
rclavicle -6.25675e-014 1.74931e-014
rhumerus -51.6958 -5.91505 -72.3716
rradius 54.1726
rwrist -4.01998
rhand -5.03518 -36.3025
rfingers 7.12502
rthumb 20.7596 -65.212
lclavicle -6.25675e-014 1.74931e-014
lhumerus 342.335 3.58353 -291.369
lradius 17.4812
lwrist 7.91414
lhand -18.6161 -9.65045
lfingers 7.12502
lthumb 7.67569 20.1903
rfemur -2.64868 19.1687 3.44038
rtibia -4.0831
rfoot -33.1356 -36.7741
rtoes 22.4159
lfemur 8.61767 -6.05887 -10.6899
ltibia 1.35364
lfoot -29.4653 4.36712
ltoes 24.0919
477
root 11.5199 17.9113 26.081 -173.772 -54.4945 -179.392
lowerback -5.81922 1.21082 -1.5589
upperback -1.15622 1.69559 -2.68534
thorax 2.10674 0.809456 -1.76221
lowerneck 5.95144 8.32801 4.62711
upperneck -6.24648 11.3352 -2.98481
head -2.57481 5.63066 -2.16962
rclavicle -4.3832e-014 5.64548e-014
rhumerus -51.389 -5.64726 -72.2399
rradius 54.4471
rwrist -4.1876
rhand -4.87327 -36.4429
rfingers 7.12502
rthumb 20.9152 -65.3354
lclavicle -4.3832e-014 5.64548e-014
lhumerus 341.925 3.55102 -292.663
lradius 17.4855
lwrist 8.53323
lhand -18.3393 -9.08964
lfingers 7.12502
lthumb 7.94287 20.7411
rfemur -2.47745 19.3482 3.58831
rtibia -4.10341
rfoot -33.5311 -36.8849
rtoes 22.5453
lfemur 8.70821 -6.02053 -10.5718
ltibia 1.28079
lfoot -29.4274 4.25165
ltoes 24.6602
478
root 11.5103 17.9133 26.0738 -174.04 -54.5199 -179.135
lowerback -5.78204 1.36852 -1.34287
upperback -1.16385 1.89359 -2.65237
thorax 2.08811 0.910878 -1.83519
lowerneck 6.43443 8.31833 5.12344
upperneck -6.63689 11.347 -3.60162
head -2.73264 5.6441 -2.49751
rclavicle 5.44918e-014 2.38542e-015
rhumerus -51.0087 -5.48499 -72.0828
rradius 54.5563
rwrist -4.19193
rhand -4.49657 -36.5426
rfingers 7.12502
rthumb 21.277 -65.3947
lclavicle 5.44918e-014 2.38542e-015
lhumerus 341.491 3.15585 -293.861
lradius 17.4969
lwrist 8.73661
lhand -18.2865 -8.8489
lfingers 7.12502
lthumb 7.99386 20.9799
rfemur -2.43146 19.1978 3.80625
rtibia -3.96406
rfoot -33.41 -36.7741
rtoes 22.6386
lfemur 8.86652 -6.01048 -10.4035
ltibia 1.16844
lfoot -29.4594 4.22737
ltoes 24.7317
479
root 11.5012 17.9165 26.0702 -174.19 -54.6249 -178.955
lowerback -5.74841 1.5012 -1.14503
upperback -1.18898 2.05833 -2.64263
thorax 2.05397 0.995037 -1.92477
lowerneck 6.71914 8.17439 5.55313
upperneck -6.82375 11.18 -4.00988
head -2.81126 5.56499 -2.72472
rclavicle -6.12008e-014 -3.4191e-014
rhumerus -50.6081 -5.34016 -71.8973
rradius 54.6379
rwrist -4.39257
rhand -4.51552 -36.4192
rfingers 7.12502
rthumb 21.2588 -65.2733
lclavicle -6.12008e-014 -3.4191e-014
lhumerus 341.146 3.18603 -295.075
lradius 17.3309
lwrist 7.84015
lhand -18.5487 -8.98312
lfingers 7.12502
lthumb 7.74078 20.8552
rfemur -2.43323 18.9889 3.93376
rtibia -3.82211
rfoot -33.3089 -36.6359
rtoes 22.8214
lfemur 8.9035 -6.06218 -10.3013
ltibia 1.1055
lfoot -29.3861 4.41393
ltoes 24.0368
